<?xml version="1.0" standalone="no"?>
<!DOCTYPE svg PUBLIC "-//W3C//DTD SVG 20010904//EN"
 "http://www.w3.org/TR/2001/REC-SVG-20010904/DTD/svg10.dtd">
<svg version="1.0" xmlns="http://www.w3.org/2000/svg"
 width="512.000000pt" height="512.000000pt" viewBox="0 0 512.000000 512.000000"
 preserveAspectRatio="xMidYMid meet">

<g transform="translate(0.000000,512.000000) scale(0.100000,-0.100000)"
fill="#000000" stroke="none">
<path d="M2502 4965 c-38 -32 -126 -160 -158 -228 -50 -111 -51 -215 -3 -312
20 -40 20 -44 5 -73 -14 -27 -16 -86 -16 -462 l0 -430 -195 0 -195 0 0 243 c0
210 -2 247 -18 277 -17 34 -17 35 11 90 27 51 28 62 25 145 -3 80 -8 98 -42
166 -21 42 -64 110 -95 150 -89 115 -130 117 -217 10 -105 -130 -162 -275
-150 -375 4 -28 18 -74 32 -103 24 -49 24 -54 10 -82 -13 -25 -16 -73 -16
-275 l0 -244 -222 -4 c-249 -4 -264 -7 -338 -74 -66 -60 -85 -104 -85 -204 0
-103 19 -145 95 -213 l50 -45 -2 -434 -3 -433 -255 -5 c-286 -6 -295 -8 -373
-79 -121 -112 -122 -310 -1 -421 24 -22 55 -46 69 -52 l25 -11 0 -327 c0 -337
4 -381 40 -400 26 -14 63 -12 86 4 16 12 20 30 24 123 l5 108 1965 0 1965 0 3
-197 2 -198 -2163 0 c-2400 0 -2218 5 -2291 -66 -56 -54 -70 -89 -71 -170 0
-61 4 -77 30 -120 19 -30 49 -60 79 -79 l49 -30 2385 -3 2385 -2 53 24 c89 41
142 138 131 238 -7 59 -27 97 -73 142 -53 51 -107 66 -246 66 l-118 0 0 443 0
444 25 11 c14 6 45 30 69 52 122 113 120 311 -4 423 -93 83 66 77 -1896 77
l-1744 0 0 220 0 220 1430 0 1430 0 0 -104 c0 -111 11 -161 40 -176 30 -16 64
-12 88 10 22 21 22 24 22 361 l0 340 54 50 c122 111 128 294 14 406 -74 73
-93 77 -345 81 l-223 4 0 244 c0 202 -3 250 -16 275 -14 28 -14 33 10 82 66
138 26 299 -118 478 -82 102 -128 104 -202 11 -59 -74 -117 -174 -139 -237
-26 -79 -22 -177 12 -245 28 -55 28 -56 11 -90 -16 -30 -18 -67 -18 -277 l0
-243 -195 0 -195 0 0 425 c0 361 -2 431 -15 462 -15 36 -15 40 11 98 22 47 27
75 27 130 -1 89 -25 154 -103 272 -94 143 -144 172 -208 118z m89 -208 c67
-107 85 -167 69 -228 -13 -49 -43 -69 -100 -69 -57 0 -87 20 -100 69 -12 45
-5 90 23 146 25 51 70 125 77 125 3 0 17 -19 31 -43z m-817 -430 c19 -40 36
-83 37 -97 6 -104 -20 -140 -101 -140 -124 0 -142 121 -42 280 33 54 38 58 53
44 9 -8 33 -48 53 -87z m1731 -65 c21 -63 14 -114 -20 -148 -19 -19 -35 -24
-75 -24 -81 0 -107 36 -101 140 2 30 52 136 82 174 l22 28 38 -60 c21 -32 45
-82 54 -110z m-877 36 c9 -9 12 -117 12 -425 l0 -413 -80 0 -80 0 0 413 c0
308 3 416 12 425 16 16 120 16 136 0z m-850 -370 c9 -9 12 -76 12 -240 l0
-228 -80 0 -80 0 0 228 c0 164 3 231 12 240 16 16 120 16 136 0z m1700 0 c9
-9 12 -76 12 -240 l0 -228 -80 0 -80 0 0 228 c0 164 3 231 12 240 16 16 120
16 136 0z m587 -632 c19 -8 44 -30 55 -48 40 -66 17 -143 -57 -192 -21 -14
-58 -40 -81 -58 -37 -28 -53 -33 -96 -33 -46 0 -59 5 -107 41 -157 118 -278
124 -422 19 -115 -84 -154 -85 -262 -5 -141 104 -271 105 -401 5 -106 -83
-162 -83 -268 0 -130 100 -260 99 -401 -5 -108 -80 -147 -79 -262 5 -142 104
-271 99 -416 -16 -83 -65 -135 -64 -233 6 -110 77 -126 96 -131 151 -5 60 21
108 70 129 49 22 2961 22 3012 1z m-2451 -355 c13 -6 52 -30 86 -56 77 -56
153 -80 227 -71 71 8 105 23 181 81 50 38 74 49 111 53 43 4 52 0 111 -42 87
-62 141 -87 204 -93 75 -8 150 17 231 77 38 28 79 53 92 56 46 12 94 -5 165
-57 140 -104 260 -104 403 1 105 76 158 78 243 11 97 -77 188 -104 280 -83
l42 10 0 -94 0 -94 -1430 0 -1430 0 0 94 0 94 43 -10 c86 -20 184 7 269 73 72
58 117 70 172 50z m3020 -1055 c49 -20 80 -70 80 -126 0 -58 -29 -102 -87
-132 -23 -11 -70 -40 -105 -64 -80 -55 -119 -67 -197 -62 -50 3 -74 11 -117
38 -134 84 -164 100 -217 111 -123 25 -244 -3 -357 -84 -70 -50 -114 -67 -177
-67 -72 0 -108 14 -198 75 -173 118 -344 114 -528 -15 -65 -46 -106 -60 -171
-60 -65 0 -106 14 -171 60 -179 126 -351 133 -516 22 -97 -65 -139 -82 -206
-82 -67 0 -110 16 -181 67 -100 72 -149 88 -266 88 -117 0 -159 -14 -253 -81
-77 -56 -124 -74 -192 -74 -67 0 -115 18 -191 72 -27 20 -68 45 -91 57 -57 29
-87 73 -87 131 0 55 31 105 78 126 47 20 4101 21 4150 0z m-3333 -388 c19 -6
68 -34 109 -61 87 -59 168 -87 250 -87 115 0 147 12 317 119 97 62 195 55 307
-20 110 -73 158 -92 252 -97 97 -5 165 12 244 62 30 19 74 47 98 62 51 31 149
43 205 24 21 -6 67 -32 103 -57 99 -68 146 -85 244 -90 108 -6 178 15 280 84
89 59 126 73 194 73 58 0 109 -21 194 -78 85 -59 127 -73 223 -79 62 -4 100
-1 141 11 31 9 59 16 62 16 3 0 6 -52 6 -115 l0 -115 -1970 0 -1970 0 0 115
c0 63 3 115 6 115 3 0 31 -7 62 -16 41 -12 79 -15 141 -11 96 5 156 27 231 82
97 71 187 92 271 63z m3640 -1077 c40 -40 36 -93 -10 -128 -23 -18 -4719 -18
-4742 0 -46 35 -50 88 -10 128 l29 29 2352 0 2352 0 29 -29z"/>
</g>
</svg>
