<?xml version="1.0" encoding="UTF-8"?>
<!-- Generator: visioncortex VTracer 0.6.3 -->
<svg version="1.1" xmlns="http://www.w3.org/2000/svg" width="1280" height="915">
<path d="M0 0 C12.74 9.73 23.88 20.71 33.32 33.67 C36.42 36.94 39.23 38.07 43.41 39.34 C68.52 47.96 88 67.17 100.03 90.53 C106.97 104.85 111.21 120.81 111.17 136.74 C111.17 137.89 111.17 137.89 111.17 139.06 C111.17 140.67 111.17 142.28 111.16 143.89 C111.16 146.33 111.16 148.76 111.17 151.2 C111.17 152.77 111.17 154.35 111.17 155.93 C111.17 156.69 111.16 157.46 111.16 158.25 C111.13 162.27 110.89 166.12 110.3 170.11 C109.68 175.29 111.43 178.85 113.72 183.41 C124.55 207.12 125.31 234.4 116.22 258.84 C108.91 277.47 98.35 292.57 84.03 306.53 C83.37 307.22 82.7 307.91 82.01 308.62 C78.44 312.29 75.19 315.52 70.78 318.16 C66.39 321.31 65.44 325.32 63.96 330.37 C59.5 345.45 51.21 358.52 40.03 369.53 C39.5 370.14 38.97 370.75 38.43 371.38 C22.37 389.39 -4.17 397.06 -27.4 399.28 C-35.33 399.69 -43.16 399.86 -51.04 398.81 C-64.45 397.06 -72.67 397.32 -84.13 404.49 C-87.21 406.24 -90.47 407.33 -93.84 408.41 C-94.97 408.78 -96.1 409.14 -97.27 409.52 C-122.42 416.38 -148.16 412.66 -171.06 400.41 C-175.2 398.02 -179.09 395.34 -182.97 392.53 C-183.78 391.95 -184.6 391.38 -185.45 390.78 C-195.96 382.89 -206.55 372.89 -213.9 361.96 C-218.78 354.7 -223.63 352.69 -231.74 350.69 C-243.26 347.79 -253.8 340.87 -262.97 333.53 C-263.6 333.05 -264.23 332.58 -264.88 332.08 C-284.66 316.36 -294.99 289.95 -297.97 265.53 C-298.06 262.91 -298.11 260.31 -298.1 257.68 C-298.1 256.95 -298.1 256.22 -298.1 255.46 C-298.1 253.91 -298.1 252.37 -298.1 250.82 C-298.09 248.5 -298.1 246.18 -298.1 243.86 C-298.1 235.64 -297.85 227.59 -296.98 219.4 C-296.96 215.44 -298.28 213.16 -300.43 209.93 C-312.8 190.64 -314.7 165.42 -310.01 143.45 C-303.25 116.72 -284.95 89.63 -261.7 74.39 C-252.07 68.04 -249.33 61.42 -245.74 50.67 C-242.61 42.06 -236.82 34.48 -230.97 27.53 C-230.31 26.73 -229.66 25.93 -228.98 25.11 C-210.47 3.38 -183.3 -7.34 -155.4 -10.28 C-150.95 -10.62 -146.5 -10.61 -142.03 -10.59 C-141.1 -10.6 -140.18 -10.6 -139.23 -10.6 C-133.08 -10.6 -127.07 -10.17 -120.97 -9.47 C-113.62 -8.66 -109.18 -10.59 -102.58 -13.87 C-69.64 -28.42 -28.46 -20.87 0 0 Z M-132.04 45.04 C-146.65 63.89 -155.05 84.41 -152.97 108.53 C-150.94 124.31 -143.52 138.78 -132.97 150.53 C-132.24 151.37 -131.52 152.21 -130.78 153.08 C-125.93 158.63 -120.86 164.07 -114.97 168.53 C-114.31 168.53 -113.65 168.53 -112.97 168.53 C-113.04 167.76 -113.11 166.99 -113.18 166.2 C-116.16 129.37 -113.45 94.06 -88.88 64.75 C-80.73 55.5 -70.8 49.17 -59.97 43.53 C-59.1 43.06 -58.23 42.59 -57.34 42.1 C-40.66 33.7 -21.25 32.26 -2.97 30.53 C-18.16 15.13 -37.06 6.34 -58.78 5.97 C-88.17 6.24 -113.4 23.27 -132.04 45.04 Z M-206.14 40.2 C-221.49 57.64 -226.58 81.17 -226.4 103.84 C-226.4 104.52 -226.4 105.19 -226.4 105.88 C-226.33 116.89 -225.31 127.03 -221.97 137.53 C-221.44 139.25 -221.44 139.25 -220.9 141.01 C-214.28 160.28 -201.13 174.59 -182.97 183.53 C-169.61 189.84 -156.99 191.72 -142.34 191.66 C-141.44 191.66 -140.54 191.66 -139.61 191.67 C-134.62 191.66 -129.88 191.38 -124.97 190.53 C-127.88 187.43 -130.89 184.8 -134.28 182.22 C-157.23 163.95 -176.32 138.91 -180.65 109.18 C-183.51 76.2 -174.1 48.93 -152.97 23.53 C-150.81 21.2 -148.63 18.97 -146.29 16.82 C-145.64 16.18 -145.64 16.18 -144.97 15.53 C-144.97 15.2 -144.97 14.87 -144.97 14.53 C-168.02 13.32 -190.58 23.53 -206.14 40.2 Z M-68.97 85.53 C-69.66 86.21 -70.36 86.88 -71.07 87.58 C-83.82 100.72 -90.14 119.57 -90.06 137.68 C-90.06 138.34 -90.06 139 -90.06 139.67 C-90.05 141.75 -90.04 143.83 -90.03 145.91 C-90.02 147.33 -90.02 148.74 -90.01 150.16 C-90 153.62 -89.99 157.08 -89.97 160.53 C-88.98 160.53 -87.99 160.53 -86.97 160.53 C-84.97 158.49 -84.97 158.49 -82.97 155.78 C-63.18 130.88 -38.36 112.66 -6.52 106.91 C22.23 103.85 49.41 112.69 72.03 130.53 C74.85 132.97 77.58 135.49 80.25 138.08 C82.7 140.75 82.7 140.75 86.03 141.53 C86.76 128.37 83.77 116.34 78.03 104.53 C77.56 103.56 77.1 102.58 76.61 101.58 C67.55 84.46 51.3 72.45 33.03 66.53 C-1.3 57.23 -42.74 58.56 -68.97 85.53 Z M-259.57 105.11 C-272.31 119.16 -281.43 136.43 -282.97 155.53 C-283.02 156.17 -283.07 156.81 -283.13 157.46 C-284.18 181.83 -271.2 203.55 -255.42 220.97 C-237.71 239.98 -214.76 252.93 -188.4 253.91 C-163.96 253.03 -142.46 240.86 -125.92 223.38 C-123.55 220.81 -121.24 218.19 -118.97 215.53 C-119.3 214.87 -119.63 214.21 -119.97 213.53 C-120.88 213.63 -120.88 213.63 -121.82 213.73 C-154.66 217.15 -189.87 216.01 -216.97 194.53 C-241.01 174.85 -252.8 149.14 -255.97 118.53 C-256.39 113.54 -256.7 108.54 -256.97 103.53 C-258.22 103.42 -258.22 103.42 -259.57 105.11 Z M-63.97 168.53 C-65.38 170.49 -66.68 172.48 -67.97 174.53 C-67.05 174.42 -67.05 174.42 -66.11 174.31 C-33.86 171.04 1.24 175 27.53 195.59 C29.04 196.9 30.54 198.21 32.03 199.53 C32.78 200.13 33.52 200.73 34.28 201.35 C55.7 219.13 65.81 246.86 68.72 273.78 C68.85 274.92 68.98 276.06 69.11 277.23 C69.43 280 69.73 282.76 70.03 285.53 C85.41 270.34 95.21 250.93 95.53 229.03 C95.19 203.7 82.04 182.34 65.03 164.53 C64.51 163.94 63.98 163.36 63.44 162.75 C48.37 146.48 26.5 136.08 4.47 134.33 C-23.14 133.8 -46.29 148.37 -63.97 168.53 Z M-90.97 166.53 C-94.93 172.47 -94.93 172.47 -98.97 178.53 C-101.5 176.97 -104.04 175.41 -106.58 173.84 C-108.8 172.37 -108.8 172.37 -110.97 172.53 C-110.85 173.91 -110.72 175.28 -110.59 176.66 C-110.52 177.42 -110.45 178.19 -110.38 178.98 C-109.93 182.16 -109.93 182.16 -107.97 187.53 C-112.59 188.52 -117.21 189.51 -121.97 190.53 C-119.05 193.45 -117.1 195.25 -113.72 197.28 C-113.01 197.71 -112.3 198.14 -111.58 198.58 C-110.78 199.05 -110.78 199.05 -109.97 199.53 C-111.42 203.65 -113.55 206.91 -115.97 210.53 C-115.97 211.19 -115.97 211.85 -115.97 212.53 C-111.02 211.54 -106.07 210.55 -100.97 209.53 C-99.65 214.15 -98.33 218.77 -96.97 223.53 C-92.65 219.36 -92.65 219.36 -89.65 214.72 C-89.1 213.67 -88.54 212.62 -87.97 211.53 C-84.67 212.19 -82.12 213.43 -79.22 215.09 C-78.42 215.55 -77.62 216 -76.79 216.47 C-76.19 216.82 -75.59 217.17 -74.97 217.53 C-75.48 211.68 -76.42 206.2 -77.97 200.53 C-76.77 200.41 -75.57 200.28 -74.34 200.16 C-70.69 199.71 -67.42 198.83 -63.97 197.53 C-68.05 194.08 -72.4 191.29 -76.97 188.53 C-76.63 187.93 -76.29 187.33 -75.94 186.7 C-75.5 185.9 -75.05 185.11 -74.59 184.28 C-74.15 183.49 -73.71 182.7 -73.25 181.89 C-72.11 179.79 -71.02 177.68 -69.97 175.53 C-75.75 176.16 -81.31 177.18 -86.97 178.53 C-87.09 177.75 -87.21 176.97 -87.33 176.16 C-87.58 174.64 -87.58 174.64 -87.84 173.09 C-88 172.09 -88.17 171.08 -88.33 170.04 C-88.54 169.21 -88.75 168.38 -88.97 167.53 C-89.63 167.2 -90.29 166.87 -90.97 166.53 Z M-59.97 197.53 C-58.47 200.69 -57.1 202.54 -54.4 204.78 C-53.33 205.69 -53.33 205.69 -52.24 206.63 C-50.75 207.88 -49.25 209.13 -47.75 210.38 C-41.72 215.54 -36.78 221.23 -31.97 227.53 C-31.36 228.32 -30.75 229.12 -30.13 229.93 C-12.33 254.23 -5.39 283.04 -9.62 312.87 C-11.46 323.44 -15.2 332.96 -19.97 342.53 C-20.45 343.53 -20.94 344.52 -21.43 345.55 C-26.48 355.36 -33.33 363.98 -40.75 372.11 C-42.07 373.35 -42.07 373.35 -41.97 374.53 C-28.63 375.38 -16.1 371.8 -3.97 366.53 C-3.23 366.23 -2.49 365.92 -1.73 365.6 C4.24 362.9 9.1 358.79 14.03 354.53 C14.96 353.75 14.96 353.75 15.91 352.95 C32.37 337.9 38.75 314.06 39.89 292.58 C40.87 266.71 34.91 241.41 17.54 221.7 C3.83 207.15 -15.39 198.27 -35.47 197.38 C-39.2 197.34 -42.92 197.36 -46.65 197.41 C-47.94 197.42 -49.23 197.43 -50.55 197.43 C-53.69 197.46 -56.83 197.49 -59.97 197.53 Z M-72.97 220.53 C-72.95 221.53 -72.93 222.52 -72.92 223.55 C-72.39 260.25 -72.39 260.25 -75.97 274.53 C-76.23 275.71 -76.5 276.89 -76.77 278.11 C-83.15 303.41 -99.71 326.5 -122.03 340.16 C-141.54 351.63 -161.63 355.78 -183.97 357.53 C-182.04 361.87 -179.05 364.12 -175.28 366.84 C-174.61 367.33 -173.95 367.81 -173.26 368.31 C-156.85 379.88 -137.57 385.72 -117.47 383.07 C-89.49 377.67 -65.73 359.66 -49.84 336.34 C-37.07 316.94 -31.4 295.4 -35.94 272.23 C-39.59 256.79 -48.24 243.93 -58.97 232.53 C-59.8 231.64 -60.63 230.75 -61.49 229.84 C-65.13 226.08 -68.44 223.18 -72.97 220.53 Z M-97.97 226.53 C-99.16 227.97 -100.32 229.43 -101.47 230.91 C-108.87 240.24 -116.47 248.29 -125.97 255.53 C-126.73 256.13 -127.5 256.72 -128.29 257.33 C-151.47 274.45 -179.2 282.27 -207.9 278.84 C-215.86 277.57 -223.38 275.21 -230.97 272.53 C-231.99 272.17 -233.02 271.82 -234.08 271.45 C-247.86 266.18 -259.48 257.58 -270.37 247.81 C-272.52 245.42 -272.52 245.42 -273.97 245.53 C-273.42 266.22 -268.15 285.87 -253.97 301.53 C-253.1 302.54 -253.1 302.54 -252.21 303.57 C-242.01 314.64 -227.97 320.93 -213.53 324.22 C-212.65 324.43 -211.77 324.64 -210.87 324.86 C-185.76 330.73 -155.29 328.29 -132.97 314.53 C-113.12 301.08 -102.14 284.36 -97.52 260.74 C-95.53 249.29 -95.54 238.07 -96.97 226.53 C-97.3 226.53 -97.63 226.53 -97.97 226.53 Z " fill="#000000" transform="translate(734.9658203125,30.4677734375)"/>
<path d="M0 0 C4.46 0.79 8.92 1.58 13.38 2.38 C14.63 2.6 15.88 2.82 17.17 3.05 C22.6 4.01 28.01 4.99 33.4 6.14 C46.41 8.75 59.25 6.84 72.19 4.62 C108.26 -1.5 145.79 -2.03 178.09 17.92 C190.74 26.97 199.55 39.25 202.65 54.66 C204.45 66.63 203.72 78.82 199 90 C198.64 90.89 198.28 91.78 197.9 92.7 C190.42 109.29 174.43 118.78 158 125 C151.08 127.29 144.06 129.2 137 131 C138.06 131.5 139.12 131.99 140.22 132.5 C158.69 141.31 167.88 153.8 178 171.31 C178.7 172.51 179.41 173.72 180.11 174.92 C181.48 177.25 182.84 179.59 184.2 181.92 C186.36 185.61 188.54 189.28 190.75 192.94 C193.15 196.91 195.53 200.89 197.89 204.89 C209.44 226.52 209.44 226.52 228.62 240.38 C232.16 241.03 235.41 241.15 239 241 C239.33 242.65 239.66 244.3 240 246 C218.23 251.59 191.16 255.79 170.19 245.38 C159.08 238.69 153.16 229.01 147 218 C145.99 216.22 144.98 214.44 143.96 212.66 C141.74 208.74 139.53 204.83 137.33 200.91 C132.76 192.78 128.12 184.7 123.49 176.61 C121.97 173.95 120.45 171.28 118.93 168.62 C116.44 164.25 113.95 159.88 111.44 155.52 C110.48 153.83 109.51 152.15 108.55 150.46 C107.19 148.07 105.81 145.69 104.44 143.31 C104.03 142.6 103.63 141.89 103.21 141.15 C101.35 137.96 100.12 136.08 97 134 C94.31 133.8 91.75 133.72 89.06 133.75 C88.35 133.74 87.63 133.73 86.89 133.73 C83.14 133.74 80.12 133.78 77 136 C75.31 139.39 75.86 143.25 75.87 146.98 C75.87 147.91 75.87 148.84 75.87 149.79 C75.86 152.88 75.86 155.97 75.87 159.05 C75.87 161.19 75.87 163.33 75.86 165.47 C75.86 169.97 75.86 174.46 75.87 178.95 C75.88 184.71 75.87 190.47 75.87 196.22 C75.86 200.65 75.86 205.07 75.87 209.49 C75.87 211.61 75.87 213.74 75.86 215.86 C75.86 218.83 75.87 221.8 75.87 224.77 C75.87 226.09 75.87 226.09 75.86 227.43 C75.87 228.65 75.87 228.65 75.87 229.89 C75.87 230.59 75.87 231.29 75.87 232.01 C76.01 234.15 76.31 235.98 77 238 C79.1 239.2 79.1 239.2 82 240 C83.46 240.5 84.92 241 86.38 241.5 C90.22 242.77 94.09 243.92 98 245 C98 246.32 98 247.64 98 249 C87.92 248.41 78.28 246.29 68.45 244.08 C52.65 240.74 38.97 242.18 23.44 245.5 C21.03 246 18.63 246.5 16.22 247 C14.74 247.3 13.26 247.61 11.78 247.93 C7.79 248.77 4.08 249.16 0 249 C0 247.68 0 246.36 0 245 C1.65 244.49 1.65 244.49 3.32 243.98 C4.78 243.53 6.23 243.08 7.69 242.62 C8.41 242.4 9.13 242.18 9.87 241.95 C15.55 240.27 15.55 240.27 21 238 C22.3 234.1 22.15 230.39 22.15 226.32 C22.16 225.42 22.16 224.53 22.17 223.6 C22.18 220.58 22.19 217.56 22.19 214.54 C22.2 212.38 22.21 210.22 22.22 208.06 C22.24 200.96 22.26 193.86 22.27 186.76 C22.28 184.32 22.28 181.87 22.29 179.43 C22.31 169.27 22.33 159.12 22.34 148.96 C22.36 134.39 22.39 119.82 22.45 105.25 C22.49 95.01 22.51 84.77 22.51 74.54 C22.51 68.42 22.53 62.3 22.56 56.18 C22.59 50.43 22.6 44.67 22.58 38.92 C22.58 36.81 22.59 34.69 22.61 32.58 C22.63 29.7 22.62 26.82 22.61 23.93 C22.62 23.09 22.64 22.25 22.65 21.39 C22.59 17.07 22.39 15.49 19.6 12.01 C17.23 10.18 15.65 9.18 12.79 8.42 C12.04 8.21 11.29 8 10.52 7.78 C9.36 7.49 9.36 7.49 8.19 7.19 C7.01 6.86 7.01 6.86 5.8 6.53 C3.87 6.01 1.94 5.5 0 5 C0 3.35 0 1.7 0 0 Z M85.95 9.05 C84.64 9.12 84.64 9.12 83.31 9.19 C82.57 9.22 81.82 9.26 81.05 9.29 C77.77 10.43 76.82 12.04 75 15 C74.41 18.44 74.45 21.84 74.48 25.33 C74.48 26.36 74.47 27.4 74.46 28.47 C74.44 31.9 74.46 35.33 74.47 38.75 C74.47 41.14 74.46 43.52 74.46 45.9 C74.45 50.89 74.46 55.88 74.48 60.87 C74.5 67.27 74.49 73.68 74.46 80.08 C74.45 85 74.45 89.91 74.46 94.83 C74.47 97.19 74.46 99.55 74.45 101.91 C74.44 105.21 74.46 108.51 74.48 111.8 C74.47 112.78 74.47 113.76 74.46 114.77 C74.47 120.04 74.47 120.04 76.86 124.6 C79.66 126.43 81.51 126.52 84.84 126.53 C86.55 126.54 86.55 126.54 88.29 126.56 C89.5 126.54 90.7 126.52 91.94 126.5 C93.16 126.49 94.39 126.48 95.65 126.46 C110.88 126.13 123.86 121.89 135 111 C147.15 96.26 151.33 77.71 149.72 58.92 C147.78 42.95 143.14 30.05 131 19 C116.85 9.29 102.62 8.77 85.95 9.05 Z " fill="#000000" transform="translate(783,554)"/>
<path d="M0 0 C25.41 22.2 38.37 52.39 41.76 85.66 C41.87 87.6 41.95 89.53 42.01 91.47 C42.05 92.74 42.09 94 42.13 95.31 C42.82 128.75 34.51 162.88 12.01 188.47 C11.34 189.29 10.66 190.11 9.97 190.95 C-9.65 214.03 -39.19 225.51 -68.75 228.16 C-99.3 230.55 -131.66 223.12 -155.59 203.32 C-158.12 201.09 -160.56 198.8 -162.99 196.47 C-163.82 195.7 -164.66 194.93 -165.52 194.14 C-191 169.87 -200.38 134.18 -201.24 99.97 C-201.19 98.14 -201.1 96.3 -200.99 94.47 C-200.93 93.45 -200.93 93.45 -200.86 92.42 C-199.63 73.7 -195.91 55.54 -187.99 38.47 C-187.71 37.87 -187.44 37.26 -187.15 36.64 C-174.82 10.16 -151.63 -10.13 -124.39 -20.32 C-82.71 -34.85 -34.09 -28.83 0 0 Z M-120.91 -2.27 C-139.92 22.42 -146.06 55.24 -146.19 85.76 C-146.2 86.82 -146.2 87.88 -146.21 88.98 C-146.22 91.22 -146.22 93.46 -146.23 95.7 C-146.24 99.04 -146.27 102.38 -146.3 105.72 C-146.47 139.77 -142.29 180.48 -117.68 206.47 C-105.43 217.92 -92.33 222.18 -75.69 221.75 C-60.38 220.6 -49.02 214.6 -38.52 203.46 C-24.16 186.48 -18.58 164.95 -14.99 143.47 C-14.86 142.74 -14.74 142.01 -14.61 141.25 C-7.56 98.55 -8.31 40.5 -33.56 3.57 C-42.68 -8.97 -54.56 -17.62 -69.99 -20.53 C-89.37 -22.48 -107.95 -17.5 -120.91 -2.27 Z " fill="#000000" transform="translate(451.98828125,578.52734375)"/>
<path d="M0 0 C0.69 0.17 1.38 0.33 2.1 0.5 C31.15 7.63 54.78 25.5 71.18 50.3 C80.69 66.07 86.23 82.87 89 101 C89.18 102.1 89.35 103.19 89.53 104.32 C90.35 110.77 90.24 117.26 90.25 123.75 C90.25 124.49 90.25 125.23 90.25 125.99 C90.24 137.56 89.7 148.71 87 160 C86.84 160.7 86.68 161.4 86.51 162.12 C81.31 183.94 70.44 202.84 55 219 C54.19 219.9 54.19 219.9 53.37 220.82 C35.36 240.23 7.23 250.66 -18.71 252.22 C-22.64 252.34 -26.57 252.39 -30.5 252.38 C-31.54 252.37 -31.54 252.37 -32.61 252.37 C-61.32 252.27 -86.5 244.25 -109 226 C-110.28 224.97 -110.28 224.97 -111.59 223.92 C-137.11 202.22 -148.81 169.39 -151.77 136.88 C-154.54 101.84 -146.53 65.6 -123.71 38.26 C-121.52 35.79 -119.28 33.38 -117 31 C-116.38 30.31 -115.75 29.63 -115.11 28.92 C-87.06 -0.96 -38.54 -9.71 0 0 Z M-71.03 20.59 C-99.83 55.85 -101.04 110.67 -96.99 153.74 C-93.77 183.92 -86.77 215.17 -63 236 C-52.63 244.21 -38.03 247.38 -25 246 C-9.8 243.93 2.57 237.6 12.24 225.44 C24.04 209.42 29.19 191.29 33 172 C33.27 170.66 33.27 170.66 33.55 169.29 C39.08 140.28 38.79 105.94 33 77 C32.82 76.1 32.65 75.2 32.46 74.27 C27.65 50.54 19.61 26.37 -0.98 11.86 C-23.36 -1.95 -52.85 1.25 -71.03 20.59 Z " fill="#000000" transform="translate(1190,554)"/>
<path d="M0 0 C2.67 1.57 4.68 2.21 7.73 2.6 C8.29 1.47 8.85 0.33 9.42 -0.84 C11.35 -4.27 11.35 -4.27 14.48 -5.34 C15.23 -5.36 15.97 -5.38 16.73 -5.4 C18.26 -2.35 17.86 0.83 17.85 4.17 C17.85 4.95 17.85 5.73 17.85 6.54 C17.85 9.12 17.84 11.71 17.83 14.3 C17.83 16.09 17.83 17.88 17.83 19.67 C17.82 24.39 17.81 29.11 17.8 33.82 C17.79 38.64 17.79 43.45 17.78 48.26 C17.77 57.71 17.76 67.15 17.73 76.6 C16.74 76.6 15.75 76.6 14.73 76.6 C11.9 73.69 11.14 70.93 10.38 67.01 C10.04 65.35 10.04 65.35 9.69 63.66 C9.46 62.49 9.23 61.31 8.98 60.1 C4.29 37.84 -2.25 12.33 -22.48 -0.93 C-33.2 -6.58 -44.58 -7.59 -56.45 -7.65 C-57.53 -7.67 -58.6 -7.69 -59.71 -7.71 C-67.03 -7.75 -73.32 -6.69 -80.27 -4.4 C-81.13 -4.12 -82 -3.84 -82.89 -3.55 C-102.21 2.95 -116.29 21.44 -125.15 39.03 C-136.13 62 -139.5 86.26 -139.52 111.48 C-139.52 112.3 -139.52 113.13 -139.52 113.97 C-139.5 126.39 -139.14 138.46 -136.27 150.6 C-136.1 151.32 -135.93 152.04 -135.76 152.78 C-130.27 175.59 -118.81 197.29 -98.43 210.08 C-84.28 218.54 -69.69 222.6 -53.27 223.6 C-52.57 223.64 -51.88 223.69 -51.17 223.73 C-30.76 224.32 -9.98 218.69 7.58 208.38 C10.73 206.6 10.73 206.6 12.73 206.6 C12.99 208.86 12.99 208.86 12.73 211.6 C-2.71 229.43 -32.98 237.22 -55.27 239.6 C-60.33 239.88 -65.38 239.94 -70.45 239.91 C-71.13 239.91 -71.8 239.91 -72.5 239.91 C-83.65 239.86 -94.4 239.18 -105.27 236.6 C-106.33 236.35 -106.33 236.35 -107.41 236.1 C-139.02 228.35 -166.78 209.92 -184.39 182.35 C-197.21 160.68 -202.71 137.98 -202.64 112.79 C-202.64 112.07 -202.64 111.36 -202.64 110.62 C-202.53 74.63 -191.4 41.84 -166.27 15.6 C-124.51 -24.93 -48.43 -32.5 0 0 Z " fill="#000000" transform="translate(202.265625,566.3984375)"/>
<path d="M0 0 C2.7 0.4 5.35 0.87 8.02 1.4 C8.84 1.55 9.66 1.71 10.5 1.87 C13.12 2.36 15.75 2.87 18.38 3.38 C42.51 8.03 61.62 6.81 85.61 2.03 C86.28 1.9 86.95 1.77 87.64 1.63 C89.49 1.26 91.33 0.89 93.18 0.52 C96 0 96 0 98 0 C98 1.65 98 3.3 98 5 C96.83 5.3 95.66 5.61 94.46 5.92 C92.91 6.34 91.36 6.76 89.81 7.19 C89.04 7.38 88.27 7.58 87.48 7.78 C86.73 7.99 85.98 8.2 85.21 8.42 C84.18 8.69 84.18 8.69 83.13 8.97 C79.93 10.51 78.23 12.22 76 15 C75.28 17.96 75.34 20.85 75.39 23.89 C75.38 25.23 75.38 25.23 75.37 26.6 C75.36 29.6 75.38 32.61 75.4 35.61 C75.4 37.76 75.39 39.91 75.39 42.06 C75.38 47.91 75.4 53.75 75.43 59.6 C75.45 65.71 75.45 71.82 75.45 77.93 C75.45 88.2 75.48 98.46 75.51 108.72 C75.55 120.6 75.57 132.47 75.58 144.35 C75.58 156.98 75.6 169.61 75.62 182.24 C75.63 185.88 75.63 189.53 75.64 193.17 C75.64 198.89 75.66 204.62 75.68 210.34 C75.69 212.44 75.69 214.54 75.69 216.65 C75.7 219.51 75.71 222.37 75.73 225.24 C75.72 226.08 75.72 226.91 75.72 227.78 C75.73 233.21 75.73 233.21 78 238 C83.88 241.84 91.27 243.34 98 245 C98 246.32 98 247.64 98 249 C88.38 248.43 79.09 246.53 69.7 244.51 C53.51 241.04 39.6 242.08 23.56 245.5 C21.16 246 18.76 246.51 16.36 247 C14.88 247.3 13.4 247.61 11.92 247.93 C7.5 248.85 3.49 249.14 -1 249 C-0.98 247.16 -0.98 247.16 0 245 C2.62 243.97 5.04 243.19 7.75 242.5 C13.03 241.12 16.95 239.9 21 236 C22.64 232.73 22.14 229.11 22.13 225.51 C22.14 224.62 22.14 223.73 22.14 222.82 C22.15 219.82 22.15 216.82 22.15 213.82 C22.15 211.68 22.15 209.54 22.16 207.4 C22.16 201.57 22.17 195.74 22.17 189.91 C22.17 185.05 22.17 180.19 22.18 175.33 C22.18 163.86 22.19 152.39 22.19 140.93 C22.18 129.09 22.2 117.25 22.21 105.41 C22.22 95.25 22.23 85.1 22.23 74.94 C22.23 68.87 22.23 62.8 22.24 56.73 C22.25 51.03 22.25 45.32 22.24 39.61 C22.24 37.51 22.25 35.42 22.25 33.32 C22.26 30.46 22.25 27.6 22.25 24.74 C22.25 23.91 22.26 23.07 22.26 22.21 C22.27 16.79 22.27 16.79 20 12 C14.12 8.16 6.73 6.66 0 5 C-0.56 3.06 -0.56 3.06 -1 1 C-0.67 0.67 -0.34 0.34 0 0 Z " fill="#000000" transform="translate(526,554)"/>
<path d="M0 0 C1.84 0.33 1.84 0.33 4.23 0.96 C5.09 1.19 5.96 1.41 6.86 1.64 C7.77 1.88 8.68 2.13 9.62 2.38 C28.8 7.42 45.13 6.26 64 0 C64.33 1.32 64.66 2.64 65 4 C60.46 6.36 55.96 8.41 51.19 10.25 C36.76 16.25 25.83 28.13 15.86 39.85 C13.35 42.75 10.74 45.56 8.12 48.38 C3.8 53.04 -0.47 57.73 -4.71 62.46 C-7.33 65.37 -9.98 68.25 -12.62 71.12 C-16.16 74.97 -19.63 78.85 -23.04 82.8 C-24.67 84.63 -26.32 86.42 -27.99 88.2 C-28.79 89.06 -28.79 89.06 -29.61 89.94 C-30.68 91.08 -31.75 92.21 -32.83 93.35 C-35.67 96.38 -38 99.31 -40 103 C-39.6 103.54 -39.19 104.08 -38.78 104.63 C-31.85 114.01 -25.36 123.69 -18.82 133.33 C-16.31 137.02 -13.78 140.7 -11.25 144.38 C-10.81 145.01 -10.37 145.65 -9.92 146.31 C-9.05 147.58 -8.17 148.84 -7.3 150.11 C-0.46 160.04 6.36 169.98 13.16 179.93 C17.53 186.32 21.92 192.71 26.31 199.09 C28.16 201.78 30.01 204.47 31.85 207.16 C34.14 210.52 36.44 213.86 38.76 217.2 C39.9 218.85 41.03 220.51 42.15 222.17 C48.37 231.09 54.91 238.86 66 241 C69.33 241.47 72.64 241.8 76 242 C76 243.32 76 244.64 76 246 C52.63 252.64 23.68 255.75 1.56 243.81 C-8.43 237.93 -14.94 228.71 -21.06 219.12 C-25.56 212.18 -30.14 205.35 -35.05 198.68 C-38.2 194.35 -41.19 189.93 -44.19 185.5 C-45.5 183.57 -46.81 181.64 -48.12 179.71 C-48.77 178.75 -49.42 177.8 -50.09 176.81 C-52.97 172.58 -55.86 168.35 -58.75 164.12 C-59.28 163.35 -59.8 162.58 -60.35 161.79 C-61.9 159.53 -63.45 157.26 -65 155 C-65.51 154.25 -66.02 153.51 -66.55 152.74 C-68.03 150.58 -69.52 148.41 -71 146.25 C-71.43 145.62 -71.87 144.99 -72.31 144.34 C-72.93 143.44 -72.93 143.44 -73.56 142.52 C-73.96 141.93 -74.35 141.35 -74.76 140.75 C-75.62 139.53 -76.53 138.34 -77.46 137.17 C-81.04 132.59 -81.04 132.59 -80.83 129.51 C-79.91 126.73 -78.97 125.52 -76.87 123.51 C-76.23 122.89 -75.59 122.27 -74.93 121.63 C-74.25 120.99 -73.58 120.35 -72.88 119.69 C-71.49 118.35 -70.11 117 -68.73 115.66 C-68.08 115.02 -67.42 114.39 -66.75 113.73 C-64.21 111.22 -61.9 108.55 -59.6 105.82 C-56.95 102.8 -54.05 100.04 -51.19 97.22 C-49.2 95.21 -47.34 93.15 -45.5 91 C-42.25 87.21 -38.74 83.73 -35.19 80.22 C-33.2 78.21 -31.34 76.15 -29.5 74 C-26.25 70.21 -22.74 66.73 -19.19 63.22 C-17.2 61.21 -15.34 59.15 -13.5 57 C-10.95 54.03 -8.29 51.25 -5.5 48.5 C-2.75 45.79 -0.13 43.06 2.38 40.12 C5.29 36.71 8.42 33.57 11.62 30.44 C19.02 23.75 19.02 23.75 22.11 14.8 C22.06 13.41 22.06 13.41 22 12 C21.34 11.81 20.68 11.62 20 11.42 C17.01 10.55 14.04 9.65 11.06 8.75 C10.02 8.45 8.98 8.15 7.91 7.84 C6.92 7.54 5.93 7.23 4.91 6.92 C3.54 6.51 3.54 6.51 2.13 6.1 C0 5 0 5 -0.87 2.94 C-0.93 1.98 -0.93 1.98 -1 1 C-0.67 0.67 -0.34 0.34 0 0 Z " fill="#000000" transform="translate(691,554)"/>
<path d="M0 0 C0.85 0 1.7 0.01 2.57 0.01 C3.47 0.01 4.36 0.01 5.29 0.01 C8.31 0 11.33 0.01 14.36 0.02 C16.51 0.02 18.67 0.02 20.83 0.02 C26.71 0.01 32.59 0.02 38.46 0.03 C44.6 0.03 50.73 0.03 56.87 0.04 C68.5 0.04 80.12 0.05 91.75 0.06 C104.98 0.07 118.22 0.07 131.45 0.08 C158.68 0.09 185.91 0.11 213.14 0.13 C213.14 2.77 213.14 5.41 213.14 8.13 C184.6 8.15 156.07 8.17 127.53 8.18 C114.28 8.19 101.03 8.19 87.78 8.2 C76.24 8.21 64.69 8.22 53.15 8.22 C47.04 8.22 40.92 8.23 34.8 8.23 C29.05 8.24 23.3 8.24 17.55 8.24 C15.44 8.24 13.32 8.24 11.2 8.25 C8.33 8.25 5.45 8.25 2.57 8.25 C1.72 8.25 0.87 8.26 0 8.26 C-5.75 8.24 -5.75 8.24 -6.86 7.13 C-6.99 4.13 -6.99 4.13 -6.86 1.13 C-5.02 -0.71 -2.44 0.01 0 0 Z " fill="#000000" transform="translate(1066.8609934449196,880.8709186911583)"/>
<path d="M0 0 C28.54 -0.02 57.07 -0.04 85.61 -0.05 C98.86 -0.06 112.11 -0.06 125.36 -0.08 C136.9 -0.09 148.44 -0.09 159.99 -0.09 C166.1 -0.1 172.22 -0.1 178.34 -0.11 C184.09 -0.11 189.84 -0.11 195.58 -0.11 C197.7 -0.11 199.82 -0.12 201.94 -0.12 C204.81 -0.12 207.69 -0.12 210.57 -0.12 C211.41 -0.12 212.26 -0.13 213.14 -0.13 C218.89 -0.11 218.89 -0.11 220 1 C220.12 4 220.12 4 220 7 C218.16 8.84 215.58 8.12 213.14 8.13 C211.87 8.12 211.87 8.12 210.57 8.12 C209.22 8.12 209.22 8.12 207.85 8.12 C204.83 8.12 201.81 8.12 198.78 8.11 C196.63 8.11 194.47 8.11 192.31 8.11 C186.43 8.11 180.55 8.11 174.68 8.1 C168.54 8.1 162.41 8.09 156.27 8.09 C144.64 8.09 133.02 8.08 121.39 8.07 C108.16 8.06 94.92 8.06 81.69 8.05 C54.46 8.04 27.23 8.02 0 8 C0 5.36 0 2.72 0 0 Z " fill="#000000" transform="translate(0,881)"/>
<path d="M0 0 C1.87 -0.03 1.87 -0.03 3.78 -0.06 C14.02 -0.11 22.48 0.7 30.29 7.75 C32.36 10.19 32.58 12.42 32.88 15.56 C32.5 20.02 31.43 21.85 28.56 25.25 C25.37 27.64 22.13 29.5 18.56 31.25 C22.59 36.23 26.63 41.19 30.83 46.03 C31.38 46.66 31.92 47.29 32.49 47.93 C33.57 49.18 34.66 50.42 35.75 51.65 C39.56 56.03 39.56 56.03 39.56 58.25 C34.93 59.27 31.18 59.43 26.56 58.25 C21.26 54.32 17.44 48.52 13.56 43.25 C11.96 41.11 10.33 38.99 8.69 36.88 C8.05 36 7.41 35.13 6.76 34.23 C4.17 31.53 4.17 31.53 -2.44 31.25 C-2.44 40.16 -2.44 49.07 -2.44 58.25 C-6.07 58.25 -9.7 58.25 -13.44 58.25 C-15.14 56.54 -14.57 54.34 -14.57 52.01 C-14.57 50.89 -14.57 49.78 -14.58 48.62 C-14.57 47.41 -14.57 46.19 -14.57 44.94 C-14.57 43.7 -14.57 42.46 -14.57 41.18 C-14.57 38.56 -14.57 35.93 -14.57 33.3 C-14.56 29.93 -14.57 26.56 -14.57 23.18 C-14.58 19.98 -14.57 16.77 -14.57 13.56 C-14.57 12.35 -14.57 11.13 -14.58 9.88 C-14.57 8.76 -14.57 7.64 -14.57 6.49 C-14.57 5.5 -14.57 4.51 -14.56 3.49 C-14.23 -2.37 -4.4 0.02 0 0 Z M-2.44 5.25 C-2.44 12.84 -2.44 20.43 -2.44 28.25 C8.8 28.36 8.8 28.36 18.12 23.06 C20.38 18.65 20.3 14.74 18.88 9.94 C17.02 7.55 15.29 6.57 12.56 5.25 C9.85 5.04 7.44 4.96 4.75 5.06 C1.19 5.16 1.19 5.16 -2.44 5.25 Z " fill="#000000" transform="translate(834.4375,855.75)"/>
<path d="M0 0 C33.56 0 33.56 0 42 7 C45.33 10.78 45.63 14.62 45.48 19.5 C44.66 23.79 42.32 26.29 39 29 C33.64 32.28 28.72 33.14 22.5 33.12 C21.12 33.13 21.12 33.13 19.72 33.13 C17 33 17 33 12 32 C12 40.58 12 49.16 12 58 C8.04 58 4.08 58 0 58 C0 38.86 0 19.72 0 0 Z M12 5 C12 12.59 12 20.18 12 28 C16.64 29.55 21.39 29.9 26.07 28.28 C28.85 26.84 30.76 25.36 32.5 22.75 C33.19 18.95 33.16 15.7 32 12 C29.14 8.35 26.52 6.1 22 5 C18.7 5 15.4 5 12 5 Z " fill="#000000" transform="translate(270,856)"/>
<path d="M0 0 C0.8 0 1.59 0 2.42 0.01 C3.32 0.01 4.22 0.01 5.15 0.01 C6.12 0.01 7.1 0.02 8.11 0.02 C9.11 0.02 10.11 0.03 11.14 0.03 C14.33 0.03 17.53 0.05 20.73 0.06 C22.9 0.06 25.06 0.07 27.22 0.07 C32.54 0.08 37.86 0.1 43.17 0.12 C43.17 1.77 43.17 3.42 43.17 5.12 C31.95 5.12 20.73 5.12 9.17 5.12 C9.17 11.39 9.17 17.66 9.17 24.12 C16.43 24.12 23.69 24.12 31.17 24.12 C31.67 26.6 31.67 26.6 32.17 29.12 C24.58 29.12 16.99 29.12 9.17 29.12 C9.17 37.04 9.17 44.96 9.17 53.12 C20.06 53.12 30.95 53.12 42.17 53.12 C42.67 55.6 42.67 55.6 43.17 58.12 C36.78 58.15 30.39 58.16 24 58.18 C21.82 58.18 19.65 58.19 17.47 58.2 C14.35 58.21 11.23 58.21 8.11 58.22 C6.64 58.23 6.64 58.23 5.15 58.23 C4.24 58.23 3.34 58.23 2.42 58.23 C1.62 58.24 0.82 58.24 0 58.24 C-1.83 58.12 -1.83 58.12 -2.83 57.12 C-2.93 55.38 -2.96 53.63 -2.96 51.88 C-2.96 50.76 -2.96 49.65 -2.97 48.49 C-2.97 47.28 -2.96 46.06 -2.96 44.81 C-2.96 43.57 -2.96 42.33 -2.96 41.05 C-2.97 38.43 -2.96 35.8 -2.96 33.17 C-2.95 29.8 -2.96 26.43 -2.96 23.06 C-2.97 19.85 -2.96 16.64 -2.96 13.43 C-2.96 12.22 -2.97 11 -2.97 9.75 C-2.96 8.63 -2.96 7.51 -2.96 6.36 C-2.96 5.37 -2.96 4.38 -2.96 3.36 C-2.8 0.62 -2.75 0.18 0 0 Z " fill="#000000" transform="translate(966.8286285400391,855.8797454833984)"/>
<path d="M0 0 C3.4 2.52 5.87 5.72 7.91 9.41 C7.91 10.07 7.91 10.73 7.91 11.41 C5.26 12.87 4.02 13.41 0.91 13.41 C0.35 12.32 -0.2 11.23 -0.78 10.1 C-2.77 6.68 -4.31 4.92 -8.09 3.41 C-14.31 1.92 -18.52 2.23 -24.09 5.41 C-26.33 8.15 -26.33 8.15 -26.03 10.85 C-23.92 16.6 -17.55 18.82 -12.34 21.29 C5.01 29.76 5.01 29.76 8.91 36.41 C10.19 40.64 10.17 43.53 8.47 47.54 C5.73 52.46 1.4 55.21 -3.86 57.02 C-11.93 58.44 -21.88 58.76 -29.25 54.83 C-32.58 52.27 -35.06 49.09 -37.09 45.41 C-37.09 44.75 -37.09 44.09 -37.09 43.41 C-34.78 42.75 -32.47 42.09 -30.09 41.41 C-29.25 43.05 -29.25 43.05 -28.4 44.73 C-26.09 48.76 -23.58 50.5 -19.21 52.1 C-13.1 53 -8.52 52.5 -3.09 49.41 C-1.27 47.2 -1.27 47.2 -1.09 44.41 C-2.46 40.44 -3.86 38.24 -7.53 36.29 C-8.9 35.65 -10.27 35.02 -11.65 34.41 C-13.1 33.73 -14.54 33.05 -15.99 32.36 C-16.69 32.03 -17.39 31.7 -18.12 31.36 C-25.59 27.78 -32.27 24.06 -36.09 16.41 C-36.58 11.46 -36.04 8.13 -33.43 3.99 C-25.88 -4.88 -9.65 -5.01 0 0 Z " fill="#000000" transform="translate(687.08984375,857.5859375)"/>
<path d="M0 0 C3.64 2.52 6.19 5.38 7.65 9.65 C7.71 10.18 7.78 10.72 7.84 11.27 C5.86 11.93 3.88 12.59 1.84 13.27 C1.5 12.73 1.16 12.19 0.81 11.63 C-2.23 7.14 -4.73 4.18 -10.01 2.61 C-14.85 1.86 -19.28 2.33 -23.66 4.52 C-25.66 6.86 -26.16 8.19 -26.16 11.27 C-23.12 16.09 -19.53 17.92 -14.54 20.21 C-13.1 20.9 -11.66 21.6 -10.23 22.29 C-9.53 22.63 -8.83 22.96 -8.12 23.31 C-0.5 27.05 6.9 30.71 9.84 39.15 C9.84 44.52 8.35 48.67 4.65 52.59 C-4.48 58.07 -14.6 58.94 -24.98 56.65 C-30.69 54.47 -34.23 50.58 -37.16 45.27 C-37.16 44.61 -37.16 43.95 -37.16 43.27 C-34.85 42.61 -32.54 41.95 -30.16 41.27 C-29.32 42.91 -29.32 42.91 -28.47 44.59 C-26.17 48.62 -23.65 50.36 -19.29 51.96 C-13.19 52.86 -8.54 52.44 -3.16 49.27 C-1.34 46.49 -1.34 46.49 -1.16 43.27 C-3.26 38.16 -6.93 36.51 -11.72 34.34 C-13.17 33.64 -14.61 32.95 -16.06 32.25 C-17.11 31.75 -17.11 31.75 -18.19 31.24 C-25.65 27.6 -32.32 23.94 -36.16 16.27 C-36.71 10.55 -35.8 7.7 -32.16 3.27 C-23.8 -4.64 -10.02 -5.26 0 0 Z " fill="#000000" transform="translate(607.16015625,857.7265625)"/>
<path d="M0 0 C14.85 0 29.7 0 45 0 C45 1.65 45 3.3 45 5 C33.78 5 22.56 5 11 5 C11 11.27 11 17.54 11 24 C18.59 24 26.18 24 34 24 C34 25.65 34 27.3 34 29 C26.41 29 18.82 29 11 29 C11 36.92 11 44.84 11 53 C22.22 53 33.44 53 45 53 C45 54.65 45 56.3 45 58 C30.15 58 15.3 58 0 58 C0 38.86 0 19.72 0 0 Z " fill="#000000" transform="translate(736,856)"/>
<path d="M0 0 C2.26 0.08 2.26 0.08 5 1 C6.55 3.24 7.69 5.22 8.86 7.65 C9.37 8.67 9.37 8.67 9.9 9.71 C11.01 11.92 12.1 14.15 13.19 16.38 C13.94 17.89 14.7 19.41 15.47 20.92 C16.97 23.91 18.46 26.91 19.95 29.9 C22.89 35.8 25.99 41.6 29.13 47.39 C31.16 51.18 32.77 54.85 34 59 C30.23 59.48 26.75 59.67 23 59 C20.26 56.65 19.57 54.43 18 51 C16.35 47.7 14.7 44.4 13 41 C4.09 41 -4.82 41 -14 41 C-18.95 49.91 -18.95 49.91 -24 59 C-25.98 59 -27.96 59 -30 59 C-28.62 54.43 -26.74 50.33 -24.47 46.15 C-23.95 45.18 -23.95 45.18 -23.43 44.2 C-22.31 42.11 -21.19 40.02 -20.06 37.94 C-18.91 35.78 -17.75 33.62 -16.6 31.47 C-15.83 30.03 -15.06 28.59 -14.29 27.16 C-10.97 20.96 -7.69 14.73 -4.44 8.5 C-3.98 7.62 -3.52 6.75 -3.05 5.84 C-2.03 3.9 -1.02 1.95 0 0 Z M-1 15 C-2.67 17.95 -4.34 20.91 -6 23.88 C-6.48 24.72 -6.95 25.56 -7.45 26.43 C-7.9 27.23 -8.35 28.04 -8.81 28.87 C-9.23 29.61 -9.65 30.35 -10.08 31.12 C-11.15 32.95 -11.15 32.95 -11 35 C-4.07 35.33 2.86 35.66 10 36 C9.22 32.08 8.8 30.24 6.93 27.01 C6.53 26.31 6.13 25.6 5.71 24.87 C5.29 24.15 4.87 23.43 4.44 22.69 C4.01 21.95 3.59 21.21 3.15 20.44 C2.11 18.63 1.05 16.81 0 15 C-0.33 15 -0.66 15 -1 15 Z " fill="#000000" transform="translate(369,855)"/>
<path d="M0 0 C19.14 0 38.28 0 58 0 C58 1.65 58 3.3 58 5 C50.41 5 42.82 5 35 5 C35 22.49 35 39.98 35 58 C31.04 58 27.08 58 23 58 C23 40.51 23 23.02 23 5 C15.41 5 7.82 5 0 5 C0 3.35 0 1.7 0 0 Z " fill="#000000" transform="translate(426,856)"/>
<path d="M0 0 C3.63 0 7.26 0 11 0 C11 19.14 11 38.28 11 58 C7.04 58 3.08 58 -1 58 C-1.02 50.59 -1.04 43.17 -1.05 35.76 C-1.06 32.31 -1.06 28.87 -1.08 25.43 C-1.09 21.47 -1.09 17.52 -1.1 13.57 C-1.1 12.32 -1.11 11.08 -1.11 9.8 C-1.11 8.66 -1.11 7.52 -1.11 6.35 C-1.12 5.34 -1.12 4.33 -1.12 3.28 C-1 1 -1 1 0 0 Z " fill="#000000" transform="translate(522,856)"/>
<path d="M0 0 C3.63 0 7.26 0 11 0 C11 19.14 11 38.28 11 58 C7.37 58 3.74 58 0 58 C0 38.86 0 19.72 0 0 Z " fill="#000000" transform="translate(910,856)"/>
</svg>
